<svg width="24" height="25" viewBox="0 0 24 25" fill="none" xmlns="http://www.w3.org/2000/svg">
<g opacity="0.7">
<path d="M20.0001 8.35474L14.0001 3.09474C13.4501 2.60279 12.738 2.33081 12.0001 2.33081C11.2622 2.33081 10.5501 2.60279 10.0001 3.09474L4.00009 8.35474C3.68246 8.63882 3.42899 8.9873 3.25657 9.37699C3.08414 9.76667 2.99671 10.1886 3.00009 10.6147V19.3547C3.00009 20.1504 3.31617 20.9135 3.87877 21.4761C4.44138 22.0387 5.20445 22.3547 6.00009 22.3547H18.0001C18.7957 22.3547 19.5588 22.0387 20.1214 21.4761C20.684 20.9135 21.0001 20.1504 21.0001 19.3547V10.6047C21.0021 10.1803 20.9139 9.76028 20.7416 9.37242C20.5692 8.98456 20.3165 8.6377 20.0001 8.35474ZM14.0001 20.3547H10.0001V15.3547C10.0001 15.0895 10.1055 14.8352 10.293 14.6476C10.4805 14.4601 10.7349 14.3547 11.0001 14.3547H13.0001C13.2653 14.3547 13.5197 14.4601 13.7072 14.6476C13.8947 14.8352 14.0001 15.0895 14.0001 15.3547V20.3547ZM19.0001 19.3547C19.0001 19.62 18.8947 19.8743 18.7072 20.0618C18.5197 20.2494 18.2653 20.3547 18.0001 20.3547H16.0001V15.3547C16.0001 14.5591 15.684 13.796 15.1214 13.2334C14.5588 12.6708 13.7957 12.3547 13.0001 12.3547H11.0001C10.2044 12.3547 9.44138 12.6708 8.87877 13.2334C8.31616 13.796 8.00009 14.5591 8.00009 15.3547V20.3547H6.00009C5.73488 20.3547 5.48052 20.2494 5.29299 20.0618C5.10545 19.8743 5.00009 19.62 5.00009 19.3547V10.6047C5.00027 10.4628 5.03069 10.3224 5.08931 10.1931C5.14794 10.0638 5.23343 9.94845 5.3401 9.85474L11.3401 4.60474C11.5226 4.44442 11.7572 4.35601 12.0001 4.35601C12.243 4.35601 12.4776 4.44442 12.6601 4.60474L18.6601 9.85474C18.7668 9.94845 18.8523 10.0638 18.9109 10.1931C18.9695 10.3224 18.9999 10.4628 19.0001 10.6047V19.3547Z" fill="white"/>
</g>
</svg>
