<svg width="24" height="24" viewBox="0 0 24 24" fill="none" xmlns="http://www.w3.org/2000/svg">
<path d="M17.9999 7H15.7899C15.5973 6.27179 15.2569 5.59101 14.7899 5H17.9999C18.2651 5 18.5195 4.89464 18.707 4.70711C18.8946 4.51957 18.9999 4.26522 18.9999 4C18.9999 3.73478 18.8946 3.48043 18.707 3.29289C18.5195 3.10536 18.2651 3 17.9999 3H6.99993C6.73471 3 6.48036 3.10536 6.29282 3.29289C6.10528 3.48043 5.99993 3.73478 5.99993 4C5.99993 4.26522 6.10528 4.51957 6.29282 4.70711C6.48036 4.89464 6.73471 5 6.99993 5H10.4999C11.1602 5.00232 11.8063 5.19134 12.3637 5.54523C12.9211 5.89913 13.367 6.40346 13.6499 7H6.99993C6.73471 7 6.48036 7.10536 6.29282 7.29289C6.10528 7.48043 5.99993 7.73478 5.99993 8C5.99993 8.26522 6.10528 8.51957 6.29282 8.70711C6.48036 8.89464 6.73471 9 6.99993 9H13.9999C13.88 9.8306 13.4657 10.5905 12.8324 11.1411C12.1992 11.6918 11.3891 11.9966 10.5499 12H6.99993C6.95338 11.9953 6.90648 11.9953 6.85993 12C6.79366 11.9897 6.72619 11.9897 6.65993 12C6.59176 12.0232 6.52765 12.057 6.46993 12.1L6.34993 12.17C6.29515 12.2195 6.24797 12.2768 6.20993 12.34C6.17643 12.3843 6.14635 12.4311 6.11993 12.48C6.11102 12.5397 6.11102 12.6003 6.11993 12.66C6.04866 12.7597 6.00706 12.8776 5.99993 13C5.99525 13.0465 5.99525 13.0935 5.99993 13.14C5.98961 13.2063 5.98961 13.2737 5.99993 13.34C6.02314 13.4082 6.05688 13.4723 6.09993 13.53C6.09993 13.53 6.09993 13.61 6.16993 13.65L12.1699 20.65C12.3423 20.8516 12.5877 20.9764 12.8521 20.997C13.1166 21.0177 13.3784 20.9324 13.5799 20.76C13.7815 20.5876 13.9063 20.3422 13.9269 20.0778C13.9476 19.8134 13.8623 19.5516 13.6899 19.35L9.17993 14H10.4999C11.876 14.0057 13.2042 13.4954 14.2224 12.5697C15.2406 11.6441 15.8748 10.3704 15.9999 9H17.9999C18.2651 9 18.5195 8.89464 18.707 8.70711C18.8946 8.51957 18.9999 8.26522 18.9999 8C18.9999 7.73478 18.8946 7.48043 18.707 7.29289C18.5195 7.10536 18.2651 7 17.9999 7Z" fill="#C4C4C4"/>
</svg>
