<svg width="24" height="24" viewBox="0 0 24 24" fill="none" xmlns="http://www.w3.org/2000/svg">
<g opacity="0.7">
<path d="M19.9009 12.66C19.7406 12.4775 19.6521 12.2429 19.6521 12C19.6521 11.7571 19.7406 11.5225 19.9009 11.34L21.1809 9.9C21.3219 9.74267 21.4095 9.54471 21.4311 9.33451C21.4526 9.12431 21.407 8.91269 21.3009 8.73L19.3009 5.27C19.1958 5.08752 19.0358 4.94288 18.8436 4.85669C18.6515 4.7705 18.437 4.74716 18.2309 4.79L16.3509 5.17C16.1117 5.21943 15.8626 5.17959 15.6508 5.058C15.4389 4.93641 15.2789 4.74149 15.2009 4.51L14.5909 2.68C14.5238 2.48138 14.396 2.30887 14.2255 2.18684C14.055 2.06482 13.8505 1.99946 13.6409 2H9.64087C9.42281 1.98862 9.20701 2.04893 9.02644 2.17172C8.84587 2.2945 8.71045 2.47302 8.64087 2.68L8.08087 4.51C8.00287 4.74149 7.84284 4.93641 7.63099 5.058C7.41913 5.17959 7.17009 5.21943 6.93087 5.17L5.00087 4.79C4.80542 4.76238 4.60617 4.79322 4.42822 4.87864C4.25027 4.96406 4.10157 5.10023 4.00087 5.27L2.00087 8.73C1.89203 8.91065 1.84309 9.12109 1.86106 9.33123C1.87902 9.54136 1.96296 9.74044 2.10087 9.9L3.37087 11.34C3.53119 11.5225 3.61961 11.7571 3.61961 12C3.61961 12.2429 3.53119 12.4775 3.37087 12.66L2.10087 14.1C1.96296 14.2596 1.87902 14.4586 1.86106 14.6688C1.84309 14.8789 1.89203 15.0894 2.00087 15.27L4.00087 18.73C4.10597 18.9125 4.26599 19.0571 4.45812 19.1433C4.65026 19.2295 4.8647 19.2528 5.07087 19.21L6.95087 18.83C7.19009 18.7806 7.43913 18.8204 7.65099 18.942C7.86284 19.0636 8.02287 19.2585 8.10087 19.49L8.71087 21.32C8.78045 21.527 8.91587 21.7055 9.09644 21.8283C9.27701 21.9511 9.49281 22.0114 9.71087 22H13.7109C13.9205 22.0005 14.125 21.9352 14.2955 21.8132C14.466 21.6911 14.5938 21.5186 14.6609 21.32L15.2709 19.49C15.3489 19.2585 15.5089 19.0636 15.7208 18.942C15.9326 18.8204 16.1817 18.7806 16.4209 18.83L18.3009 19.21C18.507 19.2528 18.7215 19.2295 18.9136 19.1433C19.1058 19.0571 19.2658 18.9125 19.3709 18.73L21.3709 15.27C21.477 15.0873 21.5226 14.8757 21.5011 14.6655C21.4795 14.4553 21.3919 14.2573 21.2509 14.1L19.9009 12.66ZM18.4109 14L19.2109 14.9L17.9309 17.12L16.7509 16.88C16.0307 16.7328 15.2814 16.8551 14.6455 17.2238C14.0095 17.5925 13.531 18.1818 13.3009 18.88L12.9209 20H10.3609L10.0009 18.86C9.77073 18.1618 9.29225 17.5725 8.65628 17.2038C8.0203 16.8351 7.27109 16.7128 6.55087 16.86L5.37087 17.1L4.07087 14.89L4.87087 13.99C5.36283 13.44 5.6348 12.7279 5.6348 11.99C5.6348 11.2521 5.36283 10.54 4.87087 9.99L4.07087 9.09L5.35087 6.89L6.53087 7.13C7.25109 7.27722 8.0003 7.15488 8.63628 6.7862C9.27225 6.41752 9.75073 5.82816 9.98087 5.13L10.3609 4H12.9209L13.3009 5.14C13.531 5.83816 14.0095 6.42752 14.6455 6.7962C15.2814 7.16488 16.0307 7.28722 16.7509 7.14L17.9309 6.9L19.2109 9.12L18.4109 10.02C17.9244 10.5688 17.6558 11.2767 17.6558 12.01C17.6558 12.7433 17.9244 13.4512 18.4109 14ZM11.6409 8C10.8497 8 10.0764 8.2346 9.41859 8.67412C8.76079 9.11365 8.24811 9.73836 7.94535 10.4693C7.6426 11.2002 7.56339 12.0044 7.71773 12.7804C7.87207 13.5563 8.25304 14.269 8.81245 14.8284C9.37186 15.3878 10.0846 15.7688 10.8605 15.9231C11.6364 16.0775 12.4407 15.9983 13.1716 15.6955C13.9025 15.3928 14.5272 14.8801 14.9668 14.2223C15.4063 13.5645 15.6409 12.7911 15.6409 12C15.6409 10.9391 15.2194 9.92172 14.4693 9.17157C13.7192 8.42143 12.7017 8 11.6409 8ZM11.6409 14C11.2453 14 10.8586 13.8827 10.5297 13.6629C10.2008 13.4432 9.94449 13.1308 9.79311 12.7654C9.64174 12.3999 9.60213 11.9978 9.6793 11.6098C9.75647 11.2219 9.94695 10.8655 10.2267 10.5858C10.5064 10.3061 10.8627 10.1156 11.2507 10.0384C11.6387 9.96126 12.0408 10.0009 12.4062 10.1522C12.7717 10.3036 13.084 10.56 13.3038 10.8889C13.5236 11.2178 13.6409 11.6044 13.6409 12C13.6409 12.5304 13.4302 13.0391 13.0551 13.4142C12.68 13.7893 12.1713 14 11.6409 14Z" fill="white"/>
</g>
</svg>
